<?xml version="1.0" standalone="no"?>
<!DOCTYPE svg PUBLIC "-//W3C//DTD SVG 20010904//EN"
 "http://www.w3.org/TR/2001/REC-SVG-20010904/DTD/svg10.dtd">
<svg version="1.0" xmlns="http://www.w3.org/2000/svg"
 width="1944.000000pt" height="1944.000000pt" viewBox="0 0 1944.000000 1944.000000"
 preserveAspectRatio="xMidYMid meet">
<metadata>
Created by potrace 1.11, written by Peter Selinger 2001-2013
</metadata>
<g transform="translate(0.000000,1944.000000) scale(0.100000,-0.100000)"
fill="#000000" stroke="none">
<path d="M9715 16902 c-47 -30 -45 -27 -185 -272 -5 -8 -32 -55 -61 -105 -29
-49 -64 -110 -77 -135 -13 -25 -41 -72 -62 -105 -20 -33 -63 -106 -94 -162
l-57 -103 -742 0 c-834 0 -789 4 -835 -75 -18 -32 -22 -51 -19 -100 3 -53 11
-73 68 -170 36 -60 103 -175 149 -255 156 -272 225 -391 289 -498 35 -59 66
-114 69 -122 3 -8 30 -55 59 -104 76 -126 95 -166 88 -184 -3 -10 -37 -69 -74
-132 -38 -63 -101 -171 -140 -240 -40 -69 -106 -183 -148 -255 -41 -71 -85
-148 -97 -170 -12 -22 -44 -77 -70 -122 l-49 -83 -601 0 -602 0 -22 43 c-12
23 -43 79 -69 124 -27 46 -72 124 -102 175 -29 51 -81 140 -114 198 -33 58
-92 160 -131 227 -39 68 -89 154 -111 193 -58 102 -92 132 -161 141 -65 9
-106 -3 -140 -42 -22 -24 -98 -150 -229 -379 -38 -68 -100 -174 -137 -237 -38
-64 -68 -117 -68 -120 0 -3 -29 -53 -64 -112 -35 -58 -76 -130 -92 -158 l-29
-53 -650 -2 -650 -3 -33 -24 c-62 -47 -87 -135 -58 -205 12 -29 206 -369 371
-651 29 -49 74 -128 101 -175 26 -47 69 -120 96 -163 26 -43 48 -87 48 -97 0
-21 -26 -73 -83 -165 -36 -58 -136 -231 -200 -345 -16 -30 -44 -77 -62 -105
-17 -27 -48 -79 -67 -115 -20 -36 -75 -132 -122 -215 -90 -157 -103 -191 -91
-252 9 -48 68 -107 120 -122 27 -7 239 -11 661 -11 l620 0 24 -42 c29 -54 158
-277 223 -388 28 -47 63 -107 78 -135 14 -27 52 -93 84 -145 32 -52 60 -102
63 -110 3 -8 25 -46 49 -85 24 -38 43 -77 43 -86 0 -8 -20 -47 -45 -85 -24
-38 -45 -72 -45 -77 0 -4 -34 -63 -75 -132 -41 -69 -75 -128 -75 -130 0 -4
-80 -144 -205 -355 -34 -58 -78 -135 -99 -172 l-37 -68 -639 -2 c-630 -3 -639
-3 -667 -24 -50 -37 -73 -81 -73 -142 0 -47 7 -67 51 -146 27 -50 63 -112 79
-138 16 -27 45 -76 63 -110 19 -35 56 -100 83 -146 113 -192 184 -313 214
-368 17 -33 54 -96 82 -142 30 -50 47 -89 44 -99 -4 -9 -35 -64 -70 -122 -35
-58 -82 -142 -106 -186 -24 -44 -49 -87 -55 -95 -7 -8 -24 -35 -37 -60 -40
-73 -260 -454 -268 -465 -4 -5 -24 -40 -44 -77 -47 -85 -50 -157 -10 -217 50
-76 -45 -71 1278 -71 803 0 1186 -3 1186 -10 0 -6 -18 -39 -40 -74 -22 -35
-40 -66 -40 -69 0 -3 -26 -50 -58 -104 -32 -54 -96 -163 -142 -243 -45 -80
-108 -188 -139 -240 -84 -141 -100 -179 -101 -233 0 -60 30 -121 73 -147 49
-30 140 -28 184 6 31 24 75 85 118 164 11 19 49 87 86 150 36 63 101 176 144
250 43 74 99 171 125 215 26 44 80 137 120 208 l74 127 1193 0 c957 0 1193 -3
1193 -13 0 -7 -11 -28 -23 -47 -13 -19 -35 -55 -49 -80 -14 -25 -69 -121 -123
-215 -126 -219 -128 -223 -155 -269 -17 -28 -23 -54 -23 -96 0 -105 59 -165
163 -164 95 0 121 23 206 180 20 36 50 89 68 118 18 28 52 87 76 131 24 44 58
102 77 130 18 27 33 53 33 57 0 4 31 58 68 120 38 62 71 121 75 131 6 16 33
17 380 17 l374 0 67 -112 c37 -62 71 -120 76 -128 27 -49 168 -294 196 -341
18 -31 50 -87 70 -125 21 -38 49 -87 63 -109 13 -22 63 -107 111 -190 47 -82
92 -159 99 -170 12 -19 6 -32 -48 -123 -34 -56 -65 -110 -68 -120 -4 -9 -28
-51 -53 -92 -26 -41 -50 -82 -53 -90 -4 -8 -18 -33 -30 -55 -13 -22 -67 -115
-120 -208 -53 -92 -108 -185 -122 -207 -14 -22 -25 -42 -25 -45 0 -4 -18 -36
-40 -73 l-41 -67 -1244 -5 c-1242 -5 -1244 -5 -1272 -26 -15 -11 -39 -36 -51
-55 -20 -29 -23 -44 -20 -96 4 -71 25 -106 79 -138 33 -20 54 -20 1167 -23
801 -2 1132 -5 1132 -13 0 -6 -30 -61 -66 -122 -255 -433 -264 -451 -264 -517
0 -59 11 -84 52 -122 36 -34 64 -42 134 -36 85 7 86 8 288 358 40 69 92 159
116 200 23 41 65 114 92 162 l50 88 676 0 c637 0 679 2 717 19 68 31 87 60 93
140 l5 70 -83 143 c-46 79 -104 179 -130 223 -26 44 -58 100 -71 125 -14 25
-51 90 -83 145 -32 55 -90 153 -127 217 -38 64 -69 118 -69 121 0 2 -25 45
-55 95 -30 50 -55 99 -55 108 0 9 8 28 18 42 22 32 192 327 286 497 6 11 20
33 31 49 11 16 38 62 60 102 22 40 79 140 126 221 47 81 104 178 125 215 l39
68 557 0 558 0 26 -52 c15 -29 46 -82 69 -118 23 -36 55 -90 70 -120 15 -30
39 -72 52 -93 13 -21 32 -53 42 -70 10 -18 36 -61 56 -97 21 -36 55 -94 75
-130 20 -36 72 -126 115 -200 43 -74 85 -147 92 -162 21 -40 78 -86 118 -94
100 -18 153 19 239 170 35 61 82 145 106 186 23 41 66 116 95 165 29 50 87
151 130 225 43 74 109 187 147 252 37 64 68 121 68 127 0 8 193 11 674 11
l673 0 34 23 c18 12 44 40 56 62 36 64 30 102 -33 223 -31 59 -62 114 -69 122
-7 8 -35 55 -61 103 -27 49 -53 96 -59 105 -5 10 -32 56 -59 102 -27 47 -73
126 -102 175 -29 50 -67 117 -84 150 -18 33 -38 67 -45 75 -7 8 -30 47 -50 85
-21 39 -44 79 -52 90 -28 41 -20 60 102 270 73 124 266 459 335 580 31 55 73
127 93 160 32 52 37 68 37 122 0 56 -3 66 -31 98 -60 68 -26 65 -686 65 l-598
0 -49 88 c-27 48 -73 126 -103 174 -29 48 -53 90 -53 93 0 2 -34 61 -75 130
-41 70 -75 128 -75 130 0 5 -22 42 -159 275 -34 58 -64 115 -68 127 -4 16 7
42 34 86 22 34 68 112 103 172 160 279 184 322 203 355 10 19 52 91 92 160 40
69 84 145 98 170 l25 45 644 5 c626 5 644 6 678 26 87 51 105 147 48 257 -18
34 -60 108 -95 164 -35 57 -63 106 -63 109 0 6 -161 287 -220 384 -15 25 -41
70 -58 101 -16 31 -57 102 -91 158 -34 56 -61 113 -61 127 0 15 29 74 64 133
35 58 76 129 91 156 27 50 83 147 191 330 32 55 70 121 84 147 14 26 47 85 75
130 96 160 115 203 115 261 0 44 -6 62 -30 95 -16 23 -40 47 -52 54 -18 10
-256 14 -1200 16 -985 2 -1178 5 -1178 16 0 15 63 131 129 239 22 37 41 70 41
73 0 2 26 48 58 102 33 53 72 122 89 152 17 30 51 90 76 133 89 147 100 175
95 236 -7 101 -63 151 -168 151 -57 0 -63 -3 -103 -39 -23 -22 -64 -79 -91
-128 -27 -48 -79 -140 -116 -203 -37 -63 -95 -164 -130 -225 -34 -60 -93 -162
-130 -225 -38 -63 -88 -151 -113 -195 l-45 -80 -1256 -3 c-1125 -2 -1256 0
-1256 13 0 9 28 64 61 123 34 59 90 157 124 217 35 61 79 137 99 169 29 48 36
70 36 111 0 113 -94 192 -205 171 -48 -9 -89 -47 -134 -125 -74 -127 -91 -156
-127 -221 -21 -36 -57 -99 -82 -140 -25 -41 -56 -95 -69 -120 -14 -25 -46 -80
-71 -122 l-46 -78 -420 0 -421 0 -19 33 c-10 17 -32 57 -49 87 -33 60 -134
235 -232 400 -34 58 -69 119 -77 135 -8 17 -42 76 -76 132 -34 56 -62 105 -62
108 0 3 -16 31 -35 61 -19 30 -35 57 -35 59 0 6 98 178 170 300 26 44 94 161
150 260 57 99 121 208 142 242 21 34 38 65 38 67 0 5 115 205 157 274 l13 22
1183 0 1182 0 38 25 c49 34 67 72 67 143 0 70 -26 117 -80 144 -33 17 -107 18
-1112 18 -932 0 -1078 2 -1078 14 0 8 5 18 10 21 6 4 22 30 37 58 14 29 52 96
84 150 33 54 59 100 59 103 0 2 26 48 58 102 130 216 135 227 130 298 -4 60
-7 68 -46 106 -38 39 -46 42 -104 46 -49 2 -70 -1 -93 -16z m-745 -1230 c0
-11 -17 -45 -38 -78 -21 -32 -60 -99 -87 -149 -27 -49 -60 -108 -75 -130 -15
-22 -46 -76 -70 -120 -24 -44 -58 -102 -75 -130 -18 -27 -47 -78 -65 -112 -18
-35 -39 -63 -46 -63 -13 0 -79 101 -117 178 -17 33 -43 79 -198 341 -24 41
-56 95 -70 120 -14 25 -38 67 -52 93 -15 26 -27 52 -27 57 0 8 143 11 460 11
440 0 460 -1 460 -18z m-415 -1560 c16 -31 48 -86 71 -122 22 -36 60 -101 83
-144 24 -44 53 -95 65 -115 45 -70 116 -200 116 -211 0 -7 -125 -10 -380 -10
-217 0 -380 4 -380 9 0 5 31 62 69 127 39 66 94 161 123 212 128 224 182 312
192 312 6 0 24 -26 41 -58z m-2745 -33 c0 -7 14 -35 32 -63 17 -28 50 -85 73
-126 23 -41 79 -138 123 -215 45 -77 82 -146 82 -152 0 -10 -73 -13 -330 -13
-257 0 -330 3 -330 13 0 6 11 30 23 52 37 63 178 307 198 343 11 18 25 43 33
55 7 12 25 43 40 70 25 43 56 63 56 36z m-970 -925 c0 -8 -22 -53 -50 -100
-27 -47 -50 -87 -50 -90 0 -3 -8 -17 -19 -32 -23 -33 -161 -271 -161 -277 0
-15 -64 -105 -74 -105 -7 0 -40 46 -73 103 -152 257 -283 491 -283 503 0 12
63 14 355 14 315 0 355 -2 355 -16z m1513 -18 c9 -19 77 -138 151 -266 75
-127 136 -234 136 -237 0 -3 14 -29 32 -57 28 -45 84 -141 210 -360 30 -51 39
-76 34 -96 -3 -15 -37 -83 -77 -151 -244 -419 -298 -512 -337 -583 -19 -34
-55 -97 -81 -141 -54 -90 -144 -245 -179 -308 -13 -23 -49 -85 -80 -137 -31
-52 -66 -113 -78 -135 -12 -22 -45 -80 -74 -130 -29 -49 -68 -117 -86 -150
-19 -33 -39 -67 -44 -75 -6 -8 -18 -30 -27 -47 -9 -18 -22 -33 -29 -33 -12 0
-36 35 -77 110 -22 41 -111 195 -210 363 -38 66 -72 127 -74 138 -5 18 2 19
163 19 93 0 186 5 206 10 74 21 128 87 128 158 0 60 -17 96 -63 133 l-42 34
-302 5 -303 5 -35 55 c-19 30 -35 57 -35 61 0 4 -26 52 -58 106 -64 107 -194
331 -234 403 -14 25 -46 79 -72 121 -25 42 -46 79 -46 83 0 3 -18 35 -40 71
-22 36 -40 72 -40 80 0 8 11 34 25 57 14 24 39 70 56 103 17 33 37 67 44 75
13 15 169 282 233 400 20 36 62 109 94 163 32 53 58 100 58 102 0 3 11 23 25
45 l25 40 543 0 543 0 17 -34z m1167 25 c0 -10 -71 -140 -128 -232 -22 -37
-57 -98 -78 -135 -20 -38 -52 -91 -69 -119 -18 -27 -47 -78 -65 -112 -20 -40
-39 -63 -50 -63 -17 0 -48 49 -220 350 -46 80 -103 177 -127 216 -23 40 -43
79 -43 88 0 14 38 16 390 16 217 0 390 -4 390 -9z m1625 -68 c22 -40 58 -103
80 -140 22 -37 42 -72 44 -78 2 -5 29 -53 60 -105 64 -106 181 -310 220 -383
83 -154 262 -149 341 10 14 26 50 91 81 143 31 52 69 120 86 150 17 30 52 92
79 137 94 158 179 306 186 325 7 17 51 18 1268 18 1010 0 1260 -3 1260 -13 0
-7 -22 -48 -50 -92 -27 -44 -50 -83 -50 -87 0 -4 -27 -52 -59 -106 -33 -54
-72 -121 -87 -148 -55 -99 -62 -110 -96 -164 -20 -31 -47 -78 -60 -105 -14
-28 -47 -87 -74 -132 -27 -46 -83 -141 -124 -213 -41 -71 -103 -178 -137 -236
-35 -58 -63 -108 -63 -110 0 -3 -29 -53 -64 -112 -35 -59 -79 -134 -98 -168
-41 -74 -106 -188 -175 -304 -28 -48 -55 -104 -58 -124 -15 -76 39 -155 124
-184 24 -9 203 -12 632 -12 577 0 598 -1 604 -19 3 -10 35 -67 70 -125 36 -59
65 -109 65 -112 0 -3 26 -48 58 -101 31 -52 74 -126 94 -164 20 -38 45 -81 56
-96 11 -16 38 -62 60 -103 22 -41 58 -104 81 -140 81 -129 79 -117 26 -205
-60 -99 -155 -266 -155 -273 0 -3 -7 -13 -15 -22 -8 -9 -35 -52 -58 -96 -24
-43 -96 -169 -160 -278 -64 -110 -117 -201 -117 -203 0 -3 -32 -59 -72 -126
-39 -67 -102 -176 -141 -242 -38 -66 -101 -174 -139 -240 -39 -66 -73 -127
-76 -135 -3 -8 -22 -42 -43 -75 -21 -33 -53 -89 -72 -125 -21 -39 -43 -66 -54
-68 -17 -2 -47 44 -151 230 -12 23 -50 89 -85 147 -34 58 -65 113 -69 123 -4
9 -29 52 -57 97 -28 44 -51 83 -51 86 0 10 -104 182 -124 203 -32 36 -70 52
-123 52 -95 -1 -154 -57 -161 -151 -5 -63 8 -99 79 -215 20 -33 52 -89 71
-125 20 -35 61 -106 92 -157 31 -51 56 -95 56 -98 0 -2 26 -48 59 -102 32 -53
75 -128 96 -167 21 -38 51 -88 65 -110 15 -22 43 -72 64 -111 l37 -71 -59
-104 c-32 -57 -67 -120 -79 -139 -11 -19 -32 -57 -48 -85 -15 -27 -49 -86 -75
-130 -73 -124 -181 -310 -241 -415 l-54 -95 -687 -3 -686 -2 -47 82 c-26 46
-69 119 -95 163 -26 44 -64 112 -85 150 -33 60 -104 182 -199 342 -35 60 -77
83 -151 83 -76 0 -114 -22 -151 -87 -15 -26 -53 -91 -84 -143 -32 -52 -70
-120 -85 -150 -15 -30 -44 -80 -63 -110 -19 -30 -49 -80 -65 -110 -16 -30 -52
-92 -79 -137 l-49 -83 -1190 0 c-983 0 -1189 2 -1189 13 0 8 41 85 91 173 51
87 121 211 157 274 35 63 68 120 74 127 5 6 28 46 52 90 23 43 63 112 88 153
44 74 133 227 258 445 35 61 86 151 115 200 140 240 328 573 337 595 25 65
-18 152 -93 190 -37 19 -63 20 -636 20 l-598 0 -34 63 c-37 67 -108 191 -208
358 -34 59 -66 115 -70 126 -5 10 -40 73 -79 138 -160 271 -184 314 -184 334
0 12 26 66 58 121 129 222 179 308 212 367 19 34 58 101 85 148 97 167 193
332 270 465 42 74 92 160 110 190 18 30 44 75 57 100 14 25 49 86 78 135 29
50 67 115 84 145 135 240 140 247 163 218 6 -7 24 -38 40 -68 17 -30 56 -100
88 -155 32 -55 94 -163 139 -240 44 -77 106 -184 138 -237 32 -54 58 -102 58
-107 0 -17 70 -70 107 -80 63 -18 110 -4 165 49 47 45 48 48 48 104 0 55 -5
66 -102 235 -56 97 -118 205 -138 241 -38 67 -104 181 -220 380 -119 203 -140
241 -140 251 0 6 17 39 38 74 42 72 125 217 160 279 13 22 49 84 80 136 32 52
60 102 64 111 3 8 35 65 71 125 35 60 77 132 92 159 15 28 41 74 58 103 l32
52 590 -2 590 -3 40 -72z m785 64 c0 -8 -20 -45 -43 -83 -24 -38 -70 -115
-101 -171 -31 -57 -63 -103 -70 -103 -7 0 -34 39 -61 88 -27 48 -70 123 -97
168 -26 44 -48 88 -48 97 0 15 20 17 210 17 168 0 210 -3 210 -13z m5530 1 c0
-6 -17 -41 -39 -77 -21 -36 -74 -129 -119 -206 -44 -77 -104 -182 -134 -232
-30 -52 -60 -93 -68 -93 -9 0 -24 17 -35 38 -27 51 -121 209 -152 254 -31 46
-95 73 -153 65 -50 -6 -80 -26 -116 -73 -36 -47 -39 -120 -8 -179 55 -105 98
-181 109 -195 11 -14 41 -65 108 -185 55 -98 54 -87 10 -162 -123 -210 -191
-326 -215 -369 -15 -27 -60 -106 -100 -175 -40 -69 -104 -181 -142 -248 l-70
-121 -570 2 -570 3 -104 180 c-57 99 -117 205 -134 235 -41 73 -56 89 -103
111 -71 33 -143 19 -197 -38 -67 -71 -61 -135 26 -283 78 -133 106 -185 106
-199 0 -8 -94 -11 -330 -11 -258 0 -330 3 -330 13 1 6 13 33 28 58 15 25 47
81 72 123 25 42 73 125 108 183 34 59 62 108 62 110 0 4 124 219 210 363 31
52 59 102 63 111 3 9 35 65 71 123 36 59 66 108 66 111 0 2 23 44 51 92 121
208 205 353 244 423 22 41 66 116 96 167 l54 92 1103 1 c845 0 1102 -3 1102
-12z m-10934 -1385 c15 -27 55 -95 89 -153 164 -279 225 -389 225 -404 0 -15
-32 -16 -355 -16 -315 0 -355 2 -355 16 0 15 50 106 179 324 21 36 66 113 101
173 34 59 68 107 76 107 7 0 25 -21 40 -47z m10641 -41 c28 -48 62 -107 76
-132 13 -25 34 -61 45 -80 35 -57 61 -102 90 -155 16 -27 40 -71 55 -97 15
-26 27 -52 27 -57 0 -8 -112 -11 -355 -11 -333 0 -355 1 -355 18 0 10 21 53
46 97 25 44 62 109 82 145 19 36 60 105 90 155 30 49 60 101 66 115 25 53 52
90 66 90 8 0 38 -40 67 -88z m-1047 -888 c0 -9 -46 -96 -102 -193 -56 -97
-121 -210 -144 -251 -82 -142 -94 -160 -107 -160 -7 0 -37 42 -66 93 -30 50
-82 139 -116 197 -34 58 -64 112 -68 121 -3 10 -28 53 -56 98 -28 44 -51 88
-51 96 0 13 45 15 355 15 320 0 355 -2 355 -16z m-8280 -1335 c0 -6 20 -45 45
-86 25 -40 45 -77 45 -80 0 -4 31 -59 69 -122 177 -300 201 -342 201 -356 0
-13 -50 -15 -380 -15 -220 0 -380 4 -380 9 0 5 15 35 34 68 99 172 153 266
196 338 26 44 69 119 96 167 44 78 74 110 74 77z m7968 -41 c12 -24 38 -72 59
-108 21 -36 58 -100 83 -143 25 -43 76 -130 113 -194 37 -64 71 -128 74 -144
l5 -28 -242 -3 -241 -3 -46 -48 -45 -48 4 -69 c4 -79 22 -112 78 -141 32 -17
63 -19 370 -19 l335 0 46 -82 c26 -46 78 -137 116 -203 282 -484 353 -611 353
-634 0 -17 -17 -51 -86 -171 -8 -14 -34 -58 -57 -98 -23 -41 -70 -121 -104
-179 -35 -58 -63 -107 -63 -109 0 -8 -112 -199 -126 -215 -8 -8 -14 -19 -14
-24 0 -4 -30 -59 -67 -122 l-68 -113 -554 2 -555 3 -28 49 c-16 27 -45 78 -65
115 -19 36 -43 77 -53 91 -9 14 -32 52 -50 85 -32 60 -84 150 -196 340 -32 55
-64 109 -70 120 -11 21 -50 90 -79 140 l-17 30 93 160 c51 88 112 196 137 240
24 44 52 91 62 105 9 14 33 54 52 90 20 36 50 88 67 115 17 28 44 75 60 105
16 30 58 103 93 162 34 59 97 166 138 238 95 166 174 302 264 457 39 67 93
161 119 208 56 99 73 105 105 43z m1592 -957 c0 -4 -17 -39 -39 -77 -21 -38
-69 -123 -106 -189 -37 -66 -82 -142 -99 -170 -17 -27 -38 -62 -46 -77 -21
-43 -46 -35 -76 25 -15 28 -35 63 -44 77 -10 14 -32 50 -48 80 -17 30 -46 82
-65 115 -84 142 -117 203 -117 214 0 8 89 11 320 11 176 0 320 -4 320 -9z
m-10570 -10 c0 -5 -16 -38 -37 -73 -20 -34 -65 -113 -100 -175 -34 -62 -78
-136 -96 -165 -19 -29 -44 -73 -56 -98 -36 -73 -49 -86 -69 -74 -9 6 -32 38
-51 70 -19 32 -63 109 -99 169 -36 61 -76 130 -90 155 -14 25 -42 75 -63 112
-22 36 -39 71 -39 77 0 8 107 11 350 11 202 0 350 -4 350 -9z m1626 -66 c24
-38 43 -73 44 -78 0 -4 17 -36 39 -70 21 -34 61 -103 89 -152 40 -71 60 -96
90 -113 86 -48 197 -17 240 68 37 73 31 99 -58 255 -44 77 -80 145 -80 152 0
10 66 13 315 13 293 0 315 -1 315 -17 0 -19 -11 -39 -145 -268 -48 -82 -110
-190 -137 -240 -28 -49 -58 -101 -67 -115 -10 -14 -35 -56 -56 -95 -20 -38
-55 -99 -77 -135 -22 -36 -61 -103 -88 -150 -26 -47 -87 -152 -135 -235 -98
-169 -124 -215 -152 -265 -22 -41 -113 -197 -191 -327 l-55 -93 -1108 0 c-929
0 -1109 2 -1109 14 0 7 39 80 86 162 48 82 103 178 123 214 110 194 127 220
142 220 11 0 32 -29 58 -77 143 -272 215 -334 329 -287 66 27 107 88 107 157
0 47 -8 67 -89 207 -49 85 -107 187 -129 225 -22 39 -49 86 -60 105 l-20 35
48 85 c27 47 78 135 114 197 36 61 99 169 140 240 41 70 99 171 130 223 31 52
58 99 60 105 2 5 17 34 33 63 l30 52 590 -2 591 -3 43 -70z m8644 -1204 c0 -9
55 -104 181 -318 27 -44 63 -107 80 -140 17 -32 49 -86 70 -120 22 -34 39 -67
39 -73 0 -7 -130 -10 -390 -10 -226 0 -390 4 -390 9 0 5 22 47 49 93 26 45 55
95 62 110 8 15 33 58 55 95 71 116 193 327 199 346 7 17 45 24 45 8z m-2645
-84 c10 -17 23 -40 27 -50 5 -11 34 -62 66 -115 32 -54 68 -117 81 -142 13
-25 30 -52 36 -60 20 -23 105 -185 105 -198 0 -9 -90 -12 -350 -12 -214 0
-350 4 -350 9 0 12 64 128 190 346 51 88 104 181 119 208 14 26 33 47 41 47 8
0 24 -15 35 -33z m-2716 -298 c14 -24 30 -52 81 -144 18 -33 41 -72 51 -87 11
-14 19 -31 19 -37 0 -8 -53 -11 -170 -11 -190 0 -189 0 -146 68 13 20 47 81
77 134 30 54 59 98 64 98 6 0 16 -10 24 -21z m1721 -620 c0 -11 -42 -89 -70
-129 -9 -14 -36 -60 -59 -104 -23 -43 -57 -101 -75 -130 -33 -51 -143 -244
-199 -346 -40 -75 -66 -110 -81 -110 -6 0 -34 37 -60 83 -27 45 -70 118 -96
162 -26 44 -62 107 -80 140 -18 33 -61 108 -96 168 -35 59 -64 109 -64 112 0
2 -18 33 -40 67 -68 107 -110 98 440 98 331 0 480 -3 480 -11z m2620 -7 c0 -9
-15 -40 -33 -67 -18 -28 -45 -75 -61 -105 -16 -30 -47 -84 -69 -120 -22 -36
-52 -87 -67 -115 -56 -107 -106 -185 -118 -185 -6 0 -24 23 -40 51 -43 79
-252 439 -284 488 -9 14 -17 36 -17 49 l-1 22 345 0 c324 0 345 -1 345 -18z
m-3049 -1614 c23 -40 72 -125 109 -188 37 -63 79 -135 92 -160 14 -25 53 -92
87 -150 33 -58 61 -110 61 -117 0 -10 -85 -13 -405 -13 -224 0 -405 4 -405 9
0 5 24 51 54 102 29 52 73 128 96 169 24 41 67 114 97 163 29 48 53 90 53 93
0 17 94 164 105 164 8 0 33 -33 56 -72z"/>
</g>
</svg>
